<svg xmlns="http://www.w3.org/2000/svg" width="354" height="104" viewBox="0 0 354 104">
  <defs>
    <style>
      .cls-1 {
        fill: #0f6363;
        fill-rule: evenodd;
      }
    </style>
  </defs>
  <path id="Dvid_" data-name="Dvid!" class="cls-1" d="M93.69,29.218c5.614,0,10.008,2.133,13.059,6.512,3.174,4.266,4.76,9.431,4.76,15.606a25.226,25.226,0,0,1-4.76,15.494C103.7,70.985,99.3,73.119,93.69,73.119H20.5v-43.9H93.69Zm0,60.629c11.839,0,21.236-3.593,27.949-10.779,6.834-7.3,10.252-16.5,10.252-27.732,0-11.34-3.418-20.547-10.252-27.845s-16.11-11-27.949-11h-93.7V89.848h93.7ZM205.48,37.527H184.488L173.016,67.28,161.3,37.527H140.43L164.6,89.848h16.6Zm10.738,0V89.848h19.405V37.527h-19.4Zm-2.075-17.4c0,5.5,5.37,10.217,11.716,10.217,6.469,0,11.594-4.491,11.594-10.217s-5.125-10.1-11.594-10.1C219.513,10.019,214.143,14.4,214.143,20.124Zm79.938,22.231c-4.028-4.154-9.276-6.175-15.744-6.175a27.775,27.775,0,0,0-19.4,7.635c-5.492,5.052-8.3,11.564-8.3,19.761s2.807,14.708,8.3,19.761a27.67,27.67,0,0,0,19.4,7.522c6.957,0,13.791-2.807,16.842-8.533v7.523h18.307V10.019h-19.4V42.355Zm-20.26,13.7a12.283,12.283,0,0,1,16.721,0c4.759,4.154,4.759,11,0,15.382a12.774,12.774,0,0,1-16.721,0A10.426,10.426,0,0,1,273.821,56.053Zm76.642,7.859,2.2-51.423H332.278l2.2,51.423h15.988Zm-19.65,16.5c0,5.951,5.126,10.442,11.473,10.442,6.468,0,11.716-4.491,11.716-10.442,0-5.838-5.248-10.217-11.716-10.217C335.939,70.2,330.813,74.578,330.813,80.417Z"/>
</svg>
